<?xml version="1.0" encoding="UTF-8" standalone="no"?>
<svg
   height="100"
   version="1.1"
   viewBox="0 0 99.999999 99.999999"
   width="100"
   id="svg1"
   sodipodi:docname="play.svg"
   inkscape:version="1.3.2 (091e20e, 2023-11-25, custom)"
   xmlns:inkscape="http://www.inkscape.org/namespaces/inkscape"
   xmlns:sodipodi="http://sodipodi.sourceforge.net/DTD/sodipodi-0.dtd"
   xmlns="http://www.w3.org/2000/svg"
   xmlns:svg="http://www.w3.org/2000/svg">
  <defs
     id="defs1">
    <inkscape:path-effect
       effect="fillet_chamfer"
       id="path-effect1"
       is_visible="true"
       lpeversion="1"
       nodesatellites_param="F,0,0,1,0,4,0,1 @ F,0,0,1,0,4,0,1 @ F,0,0,1,0,4,0,1 @ F,0,0,1,0,4,0,1"
       radius="4"
       unit="px"
       method="auto"
       mode="F"
       chamfer_steps="1"
       flexible="false"
       use_knot_distance="true"
       apply_no_radius="true"
       apply_with_radius="true"
       only_selected="false"
       hide_knots="false" />
    <clipPath
       clipPathUnits="userSpaceOnUse"
       id="clipPath13">
      <g
         inkscape:label="Clip"
         id="use13">
        <g
           id="g17"
           style="stroke:#000000;stroke-width:1.8;stroke-dasharray:none;stroke-opacity:1">
          <path
             d="M 54.193359,59.636719 70.632812,50.273437 54.193359,40.910156 53.017578,40.242187 35.402344,30.210937 v 40.125 l 17.615234,-10.03125 z"
             style="fill:none;fill-opacity:0.244813;stroke:#000000;stroke-width:1.8;stroke-dasharray:none;stroke-opacity:1"
             id="path15" />
          <path
             d="m 54.193359,37.904297 v 3.005859 l 16.439453,9.363281 -16.439453,9.363282 v 2.884765 L 75.810547,50.212891 Z"
             style="fill:none;fill-opacity:0.244813;stroke:#000000;stroke-width:1.8;stroke-dasharray:none;stroke-opacity:1"
             id="path16" />
          <path
             d="M 32.576172,25.595703 V 74.830078 L 54.193359,62.521484 v -2.884765 l -1.175781,0.667968 -17.615234,10.03125 v -40.125 l 17.615234,10.03125 1.175781,0.667969 v -3.005859 z"
             style="fill:none;fill-opacity:0.244813;stroke:#000000;stroke-width:1.8;stroke-dasharray:none;stroke-opacity:1"
             id="path17" />
        </g>
      </g>
    </clipPath>
  </defs>
  <sodipodi:namedview
     id="namedview1"
     pagecolor="#505050"
     bordercolor="#ffffff"
     borderopacity="1"
     inkscape:showpageshadow="0"
     inkscape:pageopacity="0"
     inkscape:pagecheckerboard="1"
     inkscape:deskcolor="#505050"
     inkscape:zoom="4"
     inkscape:cx="21.875"
     inkscape:cy="21.625"
     inkscape:window-width="1920"
     inkscape:window-height="1017"
     inkscape:window-x="-8"
     inkscape:window-y="-8"
     inkscape:window-maximized="1"
     inkscape:current-layer="svg1" />
  <path
     d="m 51.896817,55.307137 8.946895,-5.095809 -8.946895,-5.095808 -0.6399,-0.363531 -9.586795,-5.459338 v 21.837356 l 9.586795,-5.45934 z"
     style="fill:#000000;fill-opacity:1;stroke:#000000;stroke-width:0.340244"
     id="path12"
     inkscape:transform-center-x="-3.9434408"
     inkscape:transform-center-y="0.43593451" />
  <path
     style="fill:none;stroke:#000000;stroke-width:4.80938;stroke-linecap:round;stroke-linejoin:miter;stroke-dasharray:none;stroke-opacity:1"
     id="rect1"
     width="85.167038"
     height="55.174305"
     x="7.416481"
     y="22.412848"
     inkscape:path-effect="#path-effect1"
     sodipodi:type="rect"
     d="m 11.416481,22.412848 h 77.167038 a 4,4 45 0 1 4,4 v 47.174304 a 4,4 135 0 1 -4,4 H 11.416481 a 4,4 45 0 1 -4,-4 V 26.412848 a 4,4 135 0 1 4,-4 z" />
</svg>
