<?xml version="1.0" encoding="UTF-8" standalone="no"?>
<svg
   fill="none"
   viewBox="0 0 100 100"
   id="youtube-playlist"
   version="1.1"
   sodipodi:docname="playlist-icon.svg"
   width="100"
   height="100"
   inkscape:version="1.3.2 (091e20e, 2023-11-25, custom)"
   xmlns:inkscape="http://www.inkscape.org/namespaces/inkscape"
   xmlns:sodipodi="http://sodipodi.sourceforge.net/DTD/sodipodi-0.dtd"
   xmlns="http://www.w3.org/2000/svg"
   xmlns:svg="http://www.w3.org/2000/svg">
  <defs
     id="defs1" />
  <sodipodi:namedview
     id="namedview1"
     pagecolor="#505050"
     bordercolor="#ffffff"
     borderopacity="1"
     inkscape:showpageshadow="0"
     inkscape:pageopacity="0"
     inkscape:pagecheckerboard="1"
     inkscape:deskcolor="#505050"
     inkscape:zoom="4.2760417"
     inkscape:cx="32.74056"
     inkscape:cy="59.751522"
     inkscape:window-width="1920"
     inkscape:window-height="1017"
     inkscape:window-x="-8"
     inkscape:window-y="-8"
     inkscape:window-maximized="1"
     inkscape:current-layer="youtube-playlist" />
  <path
     id="path3"
     style="fill:#000000;stroke-width:10.258;stroke-dasharray:none"
     d="M 12.791016 10 C 11.249771 10 10 11.343166 10 13 L 10 29 C 10 30.656834 11.249771 32 12.791016 32 L 87.208984 32 C 88.750192 32 90 30.656834 90 29 L 90 13 C 90 11.343166 88.750192 10 87.208984 10 L 12.791016 10 z M 85.984375 14 C 86.021307 18.664607 85.995912 23.329438 86 27.994141 C 62.005233 27.999244 38.010393 28.001067 14.015625 28 C 13.978693 23.335393 14.004088 18.670562 14 14.005859 C 37.994768 14.000756 61.989607 13.998933 85.984375 14 z " />
  <path
     id="path5"
     style="fill:#000000;stroke-width:3.85794"
     d="M 12.791016 66 C 11.249771 66 10 67.343166 10 69 L 10 85 C 10 86.656794 11.249771 88 12.791016 88 L 87.208984 88 C 88.750192 88 90 86.656794 90 85 L 90 69 C 90 67.343166 88.750192 66 87.208984 66 L 12.791016 66 z M 85.984375 70 C 86.021307 74.664607 85.995912 79.329438 86 83.994141 C 62.005233 83.999244 38.010393 84.001067 14.015625 84 C 13.978693 79.335393 14.004088 74.670562 14 70.005859 C 37.994768 70.000756 61.989607 69.998933 85.984375 70 z " />
  <path
     d="m 72.398437,36.00004 c -0.489534,-0.01385 -0.98206,0.110601 -1.425781,0.375 -0.887069,0.528798 -1.4375,1.534602 -1.4375,2.625 v 20 c 0,1.090397 0.550431,2.094247 1.4375,2.623047 0.887441,0.528798 1.971753,0.49792 2.832031,-0.08008 l 14.882813,-10 C 89.503499,50.99461 90,50.034438 90,49.00004 90,47.965642 89.503499,47.003517 88.6875,46.455118 l -14.882813,-10 C 73.374548,36.166119 72.887972,36.01389 72.398437,36.00004 Z"
     style="fill:#000000;stroke-width:3.85794"
     id="path9" />
  <path
     id="path10"
     style="fill:#000000;stroke-width:3.85794"
     d="M 12.791016 38 C 11.249771 38 10 39.343206 10 41 L 10 57 C 10 58.656794 11.249771 60 12.791016 60 L 61.162109 60 C 62.703316 60 63.953125 58.656794 63.953125 57 L 63.953125 41 C 63.953125 39.343206 62.703316 38 61.162109 38 L 12.791016 38 z M 59.9375 42 C 59.968477 46.661299 59.961477 51.323241 59.943359 55.984375 C 44.634148 56.013495 29.324855 55.9978 14.015625 56 C 13.978685 51.335393 14.0041 46.670562 14 42.005859 C 29.312485 42.000698 44.625014 41.998951 59.9375 42 z " />
</svg>
