<?xml version="1.0" encoding="UTF-8" standalone="no"?>
<svg
   height="100"
   version="1.1"
   viewBox="0 0 99.999999 99.999999"
   width="100"
   id="svg1"
   sodipodi:docname="play.svg"
   inkscape:version="1.3.2 (091e20e, 2023-11-25, custom)"
   xmlns:inkscape="http://www.inkscape.org/namespaces/inkscape"
   xmlns:sodipodi="http://sodipodi.sourceforge.net/DTD/sodipodi-0.dtd"
   xmlns="http://www.w3.org/2000/svg"
   xmlns:svg="http://www.w3.org/2000/svg">
  <defs
     id="defs1">
    <clipPath
       clipPathUnits="userSpaceOnUse"
       id="clipPath13">
      <g
         inkscape:label="Clip"
         id="use13">
        <g
           id="g17"
           style="stroke:#000000;stroke-width:1.8;stroke-dasharray:none;stroke-opacity:1">
          <path
             d="M 54.193359,59.636719 70.632812,50.273437 54.193359,40.910156 53.017578,40.242187 35.402344,30.210937 v 40.125 l 17.615234,-10.03125 z"
             style="fill:none;fill-opacity:0.244813;stroke:#000000;stroke-width:1.8;stroke-dasharray:none;stroke-opacity:1"
             id="path15" />
          <path
             d="m 54.193359,37.904297 v 3.005859 l 16.439453,9.363281 -16.439453,9.363282 v 2.884765 L 75.810547,50.212891 Z"
             style="fill:none;fill-opacity:0.244813;stroke:#000000;stroke-width:1.8;stroke-dasharray:none;stroke-opacity:1"
             id="path16" />
          <path
             d="M 32.576172,25.595703 V 74.830078 L 54.193359,62.521484 v -2.884765 l -1.175781,0.667968 -17.615234,10.03125 v -40.125 l 17.615234,10.03125 1.175781,0.667969 v -3.005859 z"
             style="fill:none;fill-opacity:0.244813;stroke:#000000;stroke-width:1.8;stroke-dasharray:none;stroke-opacity:1"
             id="path17" />
        </g>
      </g>
    </clipPath>
  </defs>
  <sodipodi:namedview
     id="namedview1"
     pagecolor="#505050"
     bordercolor="#ffffff"
     borderopacity="1"
     inkscape:showpageshadow="0"
     inkscape:pageopacity="0"
     inkscape:pagecheckerboard="1"
     inkscape:deskcolor="#505050"
     inkscape:zoom="5.701389"
     inkscape:cx="65.422654"
     inkscape:cy="43.58587"
     inkscape:window-width="1920"
     inkscape:window-height="1017"
     inkscape:window-x="-8"
     inkscape:window-y="-8"
     inkscape:window-maximized="1"
     inkscape:current-layer="svg1" />
  <path
     id="path1"
     style=""
     d="M 50 0.9921875 C 22.963418 0.9921875 0.9921875 22.963418 0.9921875 50 C 0.9921875 77.036582 22.963418 99.007812 50 99.007812 C 77.036582 99.007812 99.007812 77.036582 99.007812 50 C 99.007812 22.963418 77.036582 0.9921875 50 0.9921875 z M 48.828125 5.0078125 C 52.627281 4.9227794 56.441989 5.2912144 60.144531 6.1523438 C 71.49444 8.7002682 81.625071 15.963162 87.892578 25.734375 C 94.42 35.76398 96.56659 48.470856 93.855469 60.111328 C 91.379921 71.18732 84.41204 81.106666 75 87.40625 C 64.431824 94.598798 50.701323 96.825813 38.376953 93.482422 C 28.26996 90.807086 19.211016 84.453033 13.208984 75.898438 C 7.4599683 67.794742 4.5259407 57.745438 5.0546875 47.820312 C 5.5280543 36.224303 10.825458 24.961694 19.330078 17.087891 C 27.248065 9.6338817 37.95857 5.2551583 48.828125 5.0078125 z " />
  <path
     d="M 54.593605,60.136513 71.033058,50.773231 54.593605,41.40995 53.417824,40.741981 35.80259,30.710731 v 40.125 l 17.615234,-10.03125 z"
     style="fill:#000000;fill-opacity:1;stroke:#000000;stroke-width:0.62518"
     id="path12" />
</svg>
