<svg xmlns="http://www.w3.org/2000/svg" fill="none" viewBox="0 0 24 24" id="youtube-playlist"><path fill="#F03B31" d="M18.3975 15.364C18.1663 15.2195 17.8749 15.2118 17.6364 15.344 17.398 15.4762 17.25 15.7274 17.25 16V21C17.25 21.2726 17.398 21.5238 17.6364 21.656 17.8749 21.7882 18.1663 21.7805 18.3975 21.636L22.3975 19.136C22.6168 18.9989 22.75 18.7586 22.75 18.5 22.75 18.2414 22.6168 18.0011 22.3975 17.864L18.3975 15.364zM2 15.75C1.58579 15.75 1.25 16.0858 1.25 16.5V20.5C1.25 20.9142 1.58579 21.25 2 21.25H15C15.4142 21.25 15.75 20.9142 15.75 20.5V16.5C15.75 16.0858 15.4142 15.75 15 15.75H2zM2 8.75C1.58579 8.75 1.25 9.08579 1.25 9.5V13.5C1.25 13.9142 1.58579 14.25 2 14.25H22C22.4142 14.25 22.75 13.9142 22.75 13.5V9.5C22.75 9.08579 22.4142 8.75 22 8.75H2zM2 1.75C1.58579 1.75 1.25 2.08579 1.25 2.5V6.5C1.25 6.91421 1.58579 7.25 2 7.25H22C22.4142 7.25 22.75 6.91421 22.75 6.5V2.5C22.75 2.08579 22.4142 1.75 22 1.75H2z"></path></svg>