<?xml version="1.0" encoding="UTF-8" standalone="no"?>
<svg
   height="100"
   version="1.1"
   viewBox="0 0 100 100"
   width="100"
   id="svg1"
   sodipodi:docname="prev.svg"
   xml:space="preserve"
   inkscape:version="1.3.2 (091e20e, 2023-11-25, custom)"
   xmlns:inkscape="http://www.inkscape.org/namespaces/inkscape"
   xmlns:sodipodi="http://sodipodi.sourceforge.net/DTD/sodipodi-0.dtd"
   xmlns="http://www.w3.org/2000/svg"
   xmlns:svg="http://www.w3.org/2000/svg"><defs
     id="defs1" /><sodipodi:namedview
     id="namedview1"
     pagecolor="#505050"
     bordercolor="#ffffff"
     borderopacity="1"
     inkscape:showpageshadow="0"
     inkscape:pageopacity="0"
     inkscape:pagecheckerboard="1"
     inkscape:deskcolor="#505050"
     inkscape:zoom="5.6568542"
     inkscape:cx="88.741902"
     inkscape:cy="68.147417"
     inkscape:window-width="1920"
     inkscape:window-height="1017"
     inkscape:window-x="-8"
     inkscape:window-y="-8"
     inkscape:window-maximized="1"
     inkscape:current-layer="svg1" /><g
     id="g2"
     transform="matrix(-1,0,0,1,101.375,0)"><path
       id="path1"
       d="m 7,17 v 5.003906 63.169922 L 72.980469,51.087891 Z M 11,23.570312 64.265625,51.087891 11,78.603516 Z" /><path
       d="m 83.277344,17 -1.751953,0.01367 -3.128907,0.02734 -6.478515,1.36914 -1.117188,1.455078 0.267578,19.025391 7.277344,7.683594 0.08203,6.947265 -7.005859,6.052735 -0.363281,18.785156 5.257812,4.228516 L 82.458984,83 82.302734,82.96875 c 0.03751,0.04001 0.263021,0.013 0.316407,0.02539 l 0.0957,-0.0059 6.142578,-0.412109 5.257812,-4.228516 -0.361328,-18.785156 -7.007812,-6.052734 0.08203,-6.947266 7.279297,-7.683594 0.267578,-19.02539 -1.117188,-1.455079 -6.480468,-1.36914 -3.09961,-0.02539 z m -0.417969,3.800781 0.277344,0.002 2.148437,0.01758 4.492188,0.949219 0.773437,1.007813 -0.125,8.841797 c 0.113227,-0.157171 0.206682,-0.339029 0.259766,-0.462891 0.02393,-0.05583 0.01776,-0.121455 0.04492,-0.175781 0,0 0,0 0,0 -0.02716,0.05433 -0.02099,0.119951 -0.04492,0.175781 -0.05308,0.123862 -0.146539,0.30572 -0.259766,0.462891 l -0.06055,4.34375 -5.044922,5.324218 v 0.04297 h -5.878906 v -0.03516 l -5.042969,-5.324219 -0.03516,-2.556641 -0.15039,-10.626953 0.77539,-1.009765 4.490235,-0.949219 2.167968,-0.01758 z m -3.28125,36.794922 h 6.027344 l 5.060547,4.371094 0.261718,13.591797 -3.804687,3.058593 -4.44336,0.298829 -0.07031,0.0039 c -0.02394,-0.0055 -0.0928,4.7e-5 -0.150391,-0.002 l 0.03516,0.0059 -4.44336,-0.296875 -3.804687,-3.060547 0.263672,-13.589844 z"
       style="stroke-width:1.0007"
       id="path45" /><path
       d="m 90.425781,31.619141 c -0.09478,0.13157 -0.202997,0.247268 -0.314453,0.289062 -0.100401,0.03766 -0.393308,0.0016 -0.486328,-0.04492 -0.01318,-0.0066 0.01042,-0.03255 0,-0.04297 -0.176771,-0.17678 -0.102851,0.015 -0.220703,-0.220703 -0.02715,-0.05429 -0.02133,-0.144454 -0.08789,-0.177734 -0.124251,-0.06213 -0.53139,0.233715 -0.61914,0.265625 -0.07059,0.02567 -0.150114,0.0173 -0.220704,0.04297 -0.324123,0.117863 -0.726411,0.329927 -0.972656,0.576172 -0.587251,0.587251 0.474149,-0.339218 -0.353515,0.396484 -0.43741,0.388808 -0.973235,0.808759 -1.546875,0.972656 -1.044304,0.298373 -1.931721,-0.472737 -2.607422,-1.148437 -0.140142,-0.140142 -0.280447,-0.280738 -0.396485,-0.441407 -0.424437,-0.587689 0.07252,-0.164948 -0.398437,-0.53125 -0.05814,-0.04522 -0.110425,-0.102902 -0.177735,-0.132812 -0.259565,-0.115363 -0.575313,-0.01459 -0.83789,0 -0.147087,0.0082 -0.296855,-0.01542 -0.44336,0 -0.135069,0.01422 -0.262734,0.06429 -0.396484,0.08789 -0.116961,0.02064 -0.238293,0.01612 -0.353516,0.04492 -0.760911,0.190225 0.03045,0.06719 -0.664062,0.265625 -0.275887,0.07882 -0.565904,0.0581 -0.839844,0.132813 -0.336838,0.09186 -0.638321,0.257996 -0.972656,0.353516 -0.08616,0.02461 -0.176362,0.02282 -0.263672,0.04297 -0.415264,0.09583 -0.836908,0.256776 -1.238281,0.398438 -0.321452,0.113454 -0.667483,0.245851 -0.972656,0.398437 -0.153659,0.07683 -0.27474,0.222002 -0.441407,0.263672 -0.07663,0.01916 -0.156626,0.0097 -0.236328,0.0039 l 0.03516,2.556641 5.042969,5.324219 v 0.03516 h 5.878906 v -0.04297 l 5.044922,-5.324218 z"
       style="stroke:#000000;stroke-width:1.1;stroke-opacity:1"
       id="path40" /><path
       style="fill:#000000;fill-opacity:1;stroke:none;stroke-width:1.1;stroke-dasharray:none;stroke-opacity:1"
       d="m 73.981047,67.617086 c 0.581864,0.05899 1.18759,-0.07252 1.767767,0 0.550686,0.06884 1.195286,0.319897 1.767767,0.176776 0.39401,-0.0985 0.449902,-0.449901 0.707106,-0.707106 0.05318,-0.05318 1.059296,-0.600223 1.237437,-0.707107 0.192738,-0.115643 0.42521,-0.256799 0.618719,-0.353553 0.114006,-0.057 0.338252,-0.03654 0.441942,-0.08839 0.02635,-0.01318 0,-0.05893 0,-0.08839 0.05893,-0.02946 0.114276,-0.06755 0.176776,-0.08839 0.284309,-0.09477 0.581149,0.03271 0.883884,-0.08839 0.385745,-0.154298 -0.05417,-0.02281 0.441941,-0.353553 0.320307,-0.213538 0.172477,-0.02102 0.441942,-0.08839 0.237434,-0.05936 0.255319,-0.245529 0.53033,-0.176776 0.422623,0.105655 0.598954,0.432059 0.972272,0.618718 0.108653,0.05433 0.23981,0.04573 0.353553,0.08839 0.185059,0.0694 0.338589,0.21723 0.530331,0.265166 0.05717,0.01429 0.124072,-0.02635 0.176776,0 0.147061,0.07353 0.2148,0.195788 0.353554,0.265165 0.0685,0.03425 0.203695,0.04741 0.265165,0.08839 0.169977,0.113318 0.271964,0.328623 0.441941,0.441942 0.07752,0.05168 0.187644,0.03671 0.265165,0.08839 0.493132,0.328755 0.839329,0.651774 1.414214,0.795495 0.607726,0.151932 1.240997,0.162639 1.856155,0.265165 0.35435,0.05906 1.05315,-0.136337 1.325826,0 0.162322,0.08116 0.297994,0.245593 0.441941,0.353554 0.04813,0.0361 0.235127,0.08666 0.265165,0.176776 0.07648,0.229429 -0.04284,0.55987 0,0.795495 0.07032,0.386742 0.169829,0.767703 0.265165,1.149049 0.144263,0.577052 0.04746,-0.333947 0.176777,0.441942 0.10402,0.624122 -0.149832,1.433603 0,2.032932 0.08557,0.342259 0.176777,0.692385 0.176777,1.06066 0,0.208257 0.205014,2.139114 0.176776,2.209708 -0.03095,0.07737 -0.145827,0.0994 -0.176776,0.176777 -0.0093,0.02313 -0.08082,0.787924 -0.08839,0.795495 -0.242633,0.242634 -0.659837,0.274277 -0.883883,0.53033 -0.139905,0.159892 -0.203322,0.380099 -0.353553,0.53033 -0.06588,0.06588 -0.179529,0.05169 -0.265166,0.08839 -0.121108,0.0519 -0.224929,0.148193 -0.353553,0.176777 -0.143806,0.03196 -0.298136,-0.03196 -0.441942,0 -0.104846,0.0233 -0.751509,0.287366 -0.883883,0.353553 -0.09501,0.04751 -0.164387,0.143184 -0.265165,0.176777 -0.346322,0.11544 -1.376343,-0.01193 -1.59099,0 -1.006874,0.05594 -1.997393,0.345959 -3.005204,0.441941 -1.063312,0.101268 -2.126102,0.275224 -3.181981,0.441942 -0.38469,0.06074 -0.741734,0.146576 -1.149048,0.08839 -0.286979,-0.041 -0.91014,-0.282669 -1.149049,-0.441941 -0.104006,-0.06934 -0.161159,-0.195828 -0.265165,-0.265165 -0.336581,-0.224388 -1.464167,-0.399668 -1.856155,-0.53033 -0.192174,-0.06406 -0.621461,-0.602686 -0.795495,-0.707107 -0.05053,-0.03032 -0.124072,0.02635 -0.176777,0 -0.02635,-0.01318 0.0071,-0.0598 0,-0.08839 -0.0226,-0.09039 -0.02251,-0.199284 -0.08839,-0.265165 -0.252961,-0.252961 -0.110703,0.220538 -0.265165,-0.08839 -0.02635,-0.05271 0.04167,-0.13511 0,-0.176777 -0.235703,-0.235702 -0.147314,0.08839 -0.265165,-0.265165 -0.02652,-0.07955 0.02652,-0.185615 0,-0.265165 -0.03359,-0.100778 -0.101661,-0.190049 -0.176777,-0.265165 -0.02083,-0.02083 -0.07521,0.02635 -0.08839,0 -0.03536,-0.07071 0.03536,-0.194454 0,-0.265165 -0.181097,-0.362193 -0.328558,-0.328557 -0.618719,-0.618718 -0.04658,-0.04658 -0.0418,-0.130192 -0.08839,-0.176777 -0.02083,-0.02083 -0.06755,0.02083 -0.08839,0 -0.04128,-0.04128 0.01782,-0.971551 0,-1.06066 -0.02584,-0.129203 -0.150936,-0.224351 -0.176776,-0.353553 -0.0626,-0.313009 -0.04327,-0.656464 -0.08839,-0.972272 -0.04598,-0.32187 -0.09144,-0.18593 -0.176776,-0.441942 -0.0611,-0.183295 -0.139286,-1.727546 -0.08839,-2.032932 0.05604,-0.336254 0.285891,-0.633957 0.353554,-0.972272 0.01909,-0.09543 -0.04329,-0.355355 0,-0.441942 0.01318,-0.02635 0.06756,0.02083 0.08839,0 0.0762,-0.0762 -0.05271,-0.336517 0,-0.441941 0.159136,-0.318272 0.10154,-0.861254 0.176777,-1.237437 z"
       id="path46" /><path
       style="fill:#000000;fill-opacity:1;stroke:none;stroke-width:1.1;stroke-dasharray:none;stroke-opacity:1"
       d="m 81.935998,56.96629 c 0.171463,0.183566 0.281191,0.45359 0.309359,0.707107 0.08477,0.762946 -0.117677,1.516465 -0.265165,2.253903 -0.02329,0.116461 -0.01931,0.237421 -0.04419,0.353553 -0.05966,0.278417 -0.177457,0.556851 -0.220971,0.839689 -0.01344,0.08736 0.01453,0.17798 0,0.265165 -0.05191,0.311487 -0.196935,0.621042 -0.265165,0.928078 -0.105132,0.473097 -0.120667,1.018423 -0.08839,1.502602 0.04779,0.716794 0.03488,-0.06757 0.08839,0.574524 0.05782,0.693839 -0.0483,1.393656 0.08839,2.077126 0.05374,0.268684 -0.445943,0.269166 -0.530331,0.353554 -0.02083,0.02083 0.02083,0.06755 0,0.08839 -0.0102,0.0102 -0.153584,0.06739 -0.08839,0.132583 0.05049,0.05049 0.439006,0.0079 0.486136,0 0.07825,-0.01304 0.143529,-0.07118 0.220971,-0.08839 0.07592,-0.01687 0.347118,-0.04775 0.441942,-0.08839 0.04882,-0.02092 0.08647,-0.06204 0.132582,-0.08839 0.0572,-0.03269 0.135621,-0.03694 0.176777,-0.08839 0.02761,-0.03451 -0.01398,-0.09066 0,-0.132582 0.0168,-0.05039 0.05652,-0.09009 0.08839,-0.132583 0.09366,-0.124881 0.03372,-0.803699 0,-0.972272 -0.02049,-0.102454 -0.07164,-0.199562 -0.04419,-0.309359 0.02443,-0.09771 0.149832,-0.282415 0.220971,-0.353553 0.01042,-0.01042 0.03378,0.01042 0.04419,0 0.01042,-0.01042 -0.01042,-0.03378 0,-0.04419 0.02947,-0.02947 0.05892,0.02946 0.08839,0 0.02083,-0.02083 0,-0.05893 0,-0.08839 0,-0.155536 0.04664,-0.390397 0,-0.53033 -0.03017,-0.09051 -0.06537,-0.173106 -0.08839,-0.265165 -0.0342,-0.13679 0.01991,-0.302579 0,-0.441942 -0.01429,-0.09999 -0.02991,-0.209364 -0.04419,-0.309359 -0.05012,-0.350807 -0.05057,0.0091 -0.132583,-0.441942 -0.02935,-0.161451 -0.03057,-1.319151 0,-1.502602 0.03298,-0.197903 0.17211,-0.407025 0.265165,-0.574524 0.148062,-0.266511 0.04209,-0.105224 0.176777,-0.441942 0.108885,-0.272212 0.295329,-0.548568 0.353554,-0.839689 0.06051,-0.302562 -2.44e-4,-0.753003 -0.04419,-1.06066 -0.02197,-0.153756 0,-0.331109 0,-0.486136 0,-0.127201 -0.04468,-0.39629 0,-0.53033 0.01547,-0.04642 0.08059,-0.160305 0.04419,-0.220971 -0.23145,-0.385748 -0.554742,-0.270111 -0.928078,-0.176777 -0.241163,0.06029 -0.145948,-0.04501 -0.441942,0.132583 z"
       id="path47" /></g></svg>
